<svg width="58" height="58" viewBox="0 0 58 58" fill="none" xmlns="http://www.w3.org/2000/svg">
<circle cx="29" cy="29" r="28.35" stroke="#A0A0A0" stroke-width="1.3"/>
<path d="M22.3333 35.6667H25V29H22.3333V35.6667ZM33 35.6667H35.6667V22.3333H33V35.6667ZM27.6667 35.6667H30.3333V31.6667H27.6667V35.6667ZM27.6667 29H30.3333V26.3333H27.6667V29ZM19.6667 41C18.9333 41 18.3056 40.7389 17.7833 40.2167C17.2611 39.6944 17 39.0667 17 38.3333V19.6667C17 18.9333 17.2611 18.3056 17.7833 17.7833C18.3056 17.2611 18.9333 17 19.6667 17H38.3333C39.0667 17 39.6944 17.2611 40.2167 17.7833C40.7389 18.3056 41 18.9333 41 19.6667V38.3333C41 39.0667 40.7389 39.6944 40.2167 40.2167C39.6944 40.7389 39.0667 41 38.3333 41H19.6667ZM19.6667 38.3333H38.3333V19.6667H19.6667V38.3333Z" fill="#333333"/>
</svg>
