<svg width="58" height="58" viewBox="0 0 58 58" fill="none" xmlns="http://www.w3.org/2000/svg">
<circle cx="29" cy="29" r="28.35" stroke="#A0A0A0" stroke-width="1.3"/>
<path d="M24.6428 20.2653C25.4401 17.932 28.6641 17.8613 29.6095 20.0533L29.6895 20.2666L30.7655 23.4133C31.0121 24.1349 31.4105 24.7953 31.934 25.3499C32.4575 25.9044 33.0939 26.3403 33.8001 26.628L34.0895 26.736L37.2361 27.8106C39.5695 28.608 39.6401 31.832 37.4495 32.7773L37.2361 32.8573L34.0895 33.9333C33.3676 34.1797 32.707 34.5781 32.1522 35.1016C31.5974 35.6252 31.1613 36.2616 30.8735 36.968L30.7655 37.256L29.6908 40.404C28.8935 42.7373 25.6695 42.808 24.7255 40.6173L24.6428 40.404L23.5681 37.2573C23.3217 36.5354 22.9233 35.8748 22.3998 35.32C21.8763 34.7652 21.2399 34.3292 20.5335 34.0413L20.2455 33.9333L17.0988 32.8586C14.7641 32.0613 14.6935 28.8373 16.8855 27.8933L17.0988 27.8106L20.2455 26.736C20.9671 26.4894 21.6275 26.0909 22.182 25.5674C22.7366 25.0439 23.1724 24.4076 23.4601 23.7013L23.5681 23.4133L24.6428 20.2653ZM27.1668 21.1266L26.0921 24.2733C25.7167 25.3737 25.1058 26.379 24.3022 27.2193C23.4985 28.0596 22.5214 28.7145 21.4388 29.1386L21.1055 29.26L17.9588 30.3346L21.1055 31.4093C22.2059 31.7848 23.2112 32.3956 24.0515 33.1993C24.8917 34.0029 25.5467 34.98 25.9708 36.0626L26.0921 36.396L27.1668 39.5426L28.2415 36.396C28.617 35.2956 29.2278 34.2902 30.0314 33.45C30.8351 32.6097 31.8122 31.9547 32.8948 31.5306L33.2281 31.4106L36.3748 30.3346L33.2281 29.26C32.1277 28.8845 31.1224 28.2737 30.2821 27.47C29.4419 26.6664 28.7869 25.6892 28.3628 24.6066L28.2428 24.2733L27.1668 21.1266ZM37.8335 15.668C38.0829 15.668 38.3274 15.7379 38.539 15.8699C38.7507 16.0019 38.9211 16.1906 39.0308 16.4146L39.0948 16.5706L39.5615 17.9386L40.9308 18.4053C41.1808 18.4902 41.3999 18.6475 41.5604 18.8571C41.721 19.0667 41.8157 19.3192 41.8325 19.5827C41.8494 19.8461 41.7876 20.1087 41.6551 20.337C41.5226 20.5654 41.3253 20.7492 41.0881 20.8653L40.9308 20.9293L39.5628 21.396L39.0961 22.7653C39.0111 23.0152 38.8537 23.2342 38.644 23.3946C38.4344 23.555 38.1818 23.6496 37.9183 23.6663C37.6549 23.683 37.3924 23.6211 37.1641 23.4885C36.9359 23.3559 36.7521 23.1585 36.6361 22.9213L36.5721 22.7653L36.1055 21.3973L34.7361 20.9306C34.4862 20.8457 34.267 20.6885 34.1065 20.4789C33.946 20.2693 33.8513 20.0167 33.8344 19.7533C33.8176 19.4898 33.8793 19.2273 34.0118 18.9989C34.1444 18.7706 34.3417 18.5867 34.5788 18.4706L34.7361 18.4066L36.1041 17.94L36.5708 16.5706C36.6607 16.3072 36.8308 16.0785 37.0573 15.9166C37.2837 15.7548 37.5551 15.6678 37.8335 15.668Z" fill="#333333"/>
</svg>
