<svg width="58" height="58" viewBox="0 0 58 58" fill="none" xmlns="http://www.w3.org/2000/svg">
<circle cx="29" cy="29" r="28.35" stroke="#A0A0A0" stroke-width="1.3"/>
<path d="M28 19H41V21H28V19ZM28 37H41V39H28V37ZM17 28H30V30H17V28ZM20 24C19.2089 24 18.4355 23.7654 17.7777 23.3259C17.1199 22.8864 16.6072 22.2616 16.3045 21.5307C16.0017 20.7998 15.9225 19.9956 16.0769 19.2196C16.2312 18.4437 16.6122 17.731 17.1716 17.1716C17.731 16.6122 18.4437 16.2312 19.2196 16.0769C19.9956 15.9225 20.7998 16.0017 21.5307 16.3045C22.2616 16.6072 22.8864 17.1199 23.3259 17.7777C23.7654 18.4355 24 19.2089 24 20C24 21.0609 23.5786 22.0783 22.8284 22.8284C22.0783 23.5786 21.0609 24 20 24ZM20 18C19.6044 18 19.2178 18.1173 18.8889 18.3371C18.56 18.5568 18.3036 18.8692 18.1522 19.2346C18.0009 19.6001 17.9613 20.0022 18.0384 20.3902C18.1156 20.7781 18.3061 21.1345 18.5858 21.4142C18.8655 21.6939 19.2219 21.8844 19.6098 21.9616C19.9978 22.0387 20.3999 21.9991 20.7654 21.8478C21.1308 21.6964 21.4432 21.44 21.6629 21.1111C21.8827 20.7822 22 20.3956 22 20C22 19.4696 21.7893 18.9609 21.4142 18.5858C21.0391 18.2107 20.5304 18 20 18ZM20 42C19.2089 42 18.4355 41.7654 17.7777 41.3259C17.1199 40.8864 16.6072 40.2616 16.3045 39.5307C16.0017 38.7998 15.9225 37.9956 16.0769 37.2196C16.2312 36.4437 16.6122 35.731 17.1716 35.1716C17.731 34.6122 18.4437 34.2312 19.2196 34.0769C19.9956 33.9225 20.7998 34.0017 21.5307 34.3045C22.2616 34.6072 22.8864 35.1199 23.3259 35.7777C23.7654 36.4355 24 37.2089 24 38C24 39.0609 23.5786 40.0783 22.8284 40.8284C22.0783 41.5786 21.0609 42 20 42ZM20 36C19.6044 36 19.2178 36.1173 18.8889 36.3371C18.56 36.5568 18.3036 36.8692 18.1522 37.2346C18.0009 37.6001 17.9613 38.0022 18.0384 38.3902C18.1156 38.7781 18.3061 39.1345 18.5858 39.4142C18.8655 39.6939 19.2219 39.8844 19.6098 39.9616C19.9978 40.0387 20.3999 39.9991 20.7654 39.8478C21.1308 39.6964 21.4432 39.44 21.6629 39.1111C21.8827 38.7822 22 38.3956 22 38C22 37.4696 21.7893 36.9609 21.4142 36.5858C21.0391 36.2107 20.5304 36 20 36ZM38 33C37.2089 33 36.4355 32.7654 35.7777 32.3259C35.1199 31.8864 34.6072 31.2616 34.3045 30.5307C34.0017 29.7998 33.9225 28.9956 34.0769 28.2196C34.2312 27.4437 34.6122 26.731 35.1716 26.1716C35.731 25.6122 36.4437 25.2312 37.2196 25.0769C37.9956 24.9225 38.7998 25.0017 39.5307 25.3045C40.2616 25.6072 40.8864 26.1199 41.3259 26.7777C41.7654 27.4355 42 28.2089 42 29C42 30.0609 41.5786 31.0783 40.8284 31.8284C40.0783 32.5786 39.0609 33 38 33ZM38 27C37.6044 27 37.2178 27.1173 36.8889 27.3371C36.56 27.5568 36.3036 27.8692 36.1522 28.2346C36.0009 28.6001 35.9613 29.0022 36.0384 29.3902C36.1156 29.7781 36.3061 30.1345 36.5858 30.4142C36.8655 30.6939 37.2219 30.8844 37.6098 30.9616C37.9978 31.0387 38.3999 30.9991 38.7654 30.8478C39.1308 30.6964 39.4432 30.44 39.6629 30.1111C39.8827 29.7822 40 29.3956 40 29C40 28.4696 39.7893 27.9609 39.4142 27.5858C39.0391 27.2107 38.5304 27 38 27Z" fill="#333333"/>
</svg>
