<svg width="58" height="58" viewBox="0 0 58 58" fill="none" xmlns="http://www.w3.org/2000/svg">
<circle cx="29" cy="29" r="28.35" stroke="#A0A0A0" stroke-width="1.3"/>
<path d="M21.6654 39.6654C19.6431 39.6654 17.9154 38.9654 16.482 37.5654C15.0487 36.1654 14.332 34.4543 14.332 32.432C14.332 30.6987 14.8543 29.1543 15.8987 27.7987C16.9431 26.4431 18.3098 25.5765 19.9987 25.1987C20.5543 23.1543 21.6654 21.4987 23.332 20.232C24.9987 18.9654 26.8876 18.332 28.9987 18.332C31.5987 18.332 33.8043 19.2376 35.6154 21.0487C37.4265 22.8598 38.332 25.0654 38.332 27.6654C39.8654 27.8431 41.1376 28.5043 42.1487 29.6487C43.1598 30.7931 43.6654 32.132 43.6654 33.6654C43.6654 35.332 43.082 36.7487 41.9154 37.9154C40.7487 39.082 39.332 39.6654 37.6654 39.6654H30.332C29.5987 39.6654 28.9709 39.4043 28.4487 38.882C27.9265 38.3598 27.6654 37.732 27.6654 36.9987V30.132L25.532 32.1987L23.6654 30.332L28.9987 24.9987L34.332 30.332L32.4654 32.1987L30.332 30.132V36.9987H37.6654C38.5987 36.9987 39.3876 36.6765 40.032 36.032C40.6765 35.3876 40.9987 34.5987 40.9987 33.6654C40.9987 32.732 40.6765 31.9431 40.032 31.2987C39.3876 30.6543 38.5987 30.332 37.6654 30.332H35.6654V27.6654C35.6654 25.8209 35.0154 24.2487 33.7154 22.9487C32.4154 21.6487 30.8431 20.9987 28.9987 20.9987C27.1543 20.9987 25.582 21.6487 24.282 22.9487C22.982 24.2487 22.332 25.8209 22.332 27.6654H21.6654C20.3765 27.6654 19.2765 28.1209 18.3654 29.032C17.4543 29.9431 16.9987 31.0431 16.9987 32.332C16.9987 33.6209 17.4543 34.7209 18.3654 35.632C19.2765 36.5431 20.3765 36.9987 21.6654 36.9987H24.9987V39.6654H21.6654Z" fill="#333333"/>
</svg>
