<svg width="58" height="58" viewBox="0 0 58 58" fill="none" xmlns="http://www.w3.org/2000/svg">
<circle cx="29" cy="29" r="28.35" stroke="#A0A0A0" stroke-width="1.3"/>
<path d="M28.9987 31.6654L26.332 28.9987L28.9987 26.332L31.6654 28.9987L28.9987 31.6654ZM26.1654 23.832L22.832 20.4987L28.9987 14.332L35.1654 20.4987L31.832 23.832L28.9987 20.9987L26.1654 23.832ZM20.4987 35.1654L14.332 28.9987L20.4987 22.832L23.832 26.1654L20.9987 28.9987L23.832 31.832L20.4987 35.1654ZM37.4987 35.1654L34.1654 31.832L36.9987 28.9987L34.1654 26.1654L37.4987 22.832L43.6654 28.9987L37.4987 35.1654ZM28.9987 43.6654L22.832 37.4987L26.1654 34.1654L28.9987 36.9987L31.832 34.1654L35.1654 37.4987L28.9987 43.6654Z" fill="#333333"/>
</svg>
