<svg width="32" height="32" viewBox="0 0 32 32" fill="none" xmlns="http://www.w3.org/2000/svg">
<path d="M8.66536 26.6654C6.64314 26.6654 4.91536 25.9654 3.48203 24.5654C2.0487 23.1654 1.33203 21.4543 1.33203 19.432C1.33203 17.6987 1.85425 16.1543 2.8987 14.7987C3.94314 13.4431 5.30981 12.5765 6.9987 12.1987C7.55425 10.1543 8.66536 8.4987 10.332 7.23203C11.9987 5.96536 13.8876 5.33203 15.9987 5.33203C18.5987 5.33203 20.8043 6.23759 22.6154 8.0487C24.4265 9.85981 25.332 12.0654 25.332 14.6654C26.8654 14.8431 28.1376 15.5043 29.1487 16.6487C30.1598 17.7931 30.6654 19.132 30.6654 20.6654C30.6654 22.332 30.082 23.7487 28.9154 24.9154C27.7487 26.082 26.332 26.6654 24.6654 26.6654H17.332C16.5987 26.6654 15.9709 26.4043 15.4487 25.882C14.9265 25.3598 14.6654 24.732 14.6654 23.9987V17.132L12.532 19.1987L10.6654 17.332L15.9987 11.9987L21.332 17.332L19.4654 19.1987L17.332 17.132V23.9987H24.6654C25.5987 23.9987 26.3876 23.6765 27.032 23.032C27.6765 22.3876 27.9987 21.5987 27.9987 20.6654C27.9987 19.732 27.6765 18.9431 27.032 18.2987C26.3876 17.6543 25.5987 17.332 24.6654 17.332H22.6654V14.6654C22.6654 12.8209 22.0154 11.2487 20.7154 9.9487C19.4154 8.6487 17.8431 7.9987 15.9987 7.9987C14.1543 7.9987 12.582 8.6487 11.282 9.9487C9.98203 11.2487 9.33203 12.8209 9.33203 14.6654H8.66536C7.37648 14.6654 6.27648 15.1209 5.36537 16.032C4.45425 16.9431 3.9987 18.0431 3.9987 19.332C3.9987 20.6209 4.45425 21.7209 5.36537 22.632C6.27648 23.5431 7.37648 23.9987 8.66536 23.9987H11.9987V26.6654H8.66536Z" fill="#CC338B"/>
</svg>
