<svg width="33" height="32" viewBox="0 0 33 32" fill="none" xmlns="http://www.w3.org/2000/svg">
<path d="M12.6428 7.2653C13.4401 4.93197 16.6641 4.8613 17.6095 7.0533L17.6895 7.26664L18.7655 10.4133C19.0121 11.1349 19.4105 11.7953 19.934 12.3499C20.4575 12.9044 21.0939 13.3403 21.8001 13.628L22.0895 13.736L25.2361 14.8106C27.5695 15.608 27.6401 18.832 25.4495 19.7773L25.2361 19.8573L22.0895 20.9333C21.3676 21.1797 20.707 21.5781 20.1522 22.1016C19.5974 22.6252 19.1613 23.2616 18.8735 23.968L18.7655 24.256L17.6908 27.404C16.8935 29.7373 13.6695 29.808 12.7255 27.6173L12.6428 27.404L11.5681 24.2573C11.3217 23.5354 10.9233 22.8748 10.3998 22.32C9.87629 21.7652 9.23986 21.3292 8.53347 21.0413L8.24547 20.9333L5.09881 19.8586C2.76414 19.0613 2.69347 15.8373 4.88547 14.8933L5.09881 14.8106L8.24547 13.736C8.96712 13.4894 9.62749 13.0909 10.182 12.5674C10.7366 12.0439 11.1724 11.4076 11.4601 10.7013L11.5681 10.4133L12.6428 7.2653ZM15.1668 8.12664L14.0921 11.2733C13.7167 12.3737 13.1058 13.379 12.3022 14.2193C11.4985 15.0596 10.5214 15.7145 9.43881 16.1386L9.10547 16.26L5.95881 17.3346L9.10547 18.4093C10.2059 18.7848 11.2112 19.3956 12.0515 20.1993C12.8917 21.0029 13.5467 21.98 13.9708 23.0626L14.0921 23.396L15.1668 26.5426L16.2415 23.396C16.617 22.2956 17.2278 21.2902 18.0314 20.45C18.8351 19.6097 19.8122 18.9547 20.8948 18.5306L21.2281 18.4106L24.3748 17.3346L21.2281 16.26C20.1277 15.8845 19.1224 15.2737 18.2821 14.47C17.4419 13.6664 16.7869 12.6892 16.3628 11.6066L16.2428 11.2733L15.1668 8.12664ZM25.8335 2.66797C26.0829 2.66797 26.3274 2.73794 26.539 2.86993C26.7507 3.00192 26.9211 3.19064 27.0308 3.41464L27.0948 3.57064L27.5615 4.93864L28.9308 5.4053C29.1808 5.49023 29.3999 5.64746 29.5604 5.85706C29.721 6.06666 29.8157 6.31919 29.8325 6.58266C29.8494 6.84613 29.7876 7.10868 29.6551 7.33702C29.5226 7.56536 29.3253 7.74922 29.0881 7.8653L28.9308 7.9293L27.5628 8.39597L27.0961 9.7653C27.0111 10.0152 26.8537 10.2342 26.644 10.3946C26.4344 10.555 26.1818 10.6496 25.9183 10.6663C25.6549 10.683 25.3924 10.6211 25.1641 10.4885C24.9359 10.3559 24.7521 10.1585 24.6361 9.9213L24.5721 9.7653L24.1055 8.3973L22.7361 7.93064C22.4862 7.84571 22.267 7.68848 22.1065 7.47888C21.946 7.26928 21.8513 7.01675 21.8344 6.75327C21.8176 6.4898 21.8793 6.22726 22.0118 5.99892C22.1444 5.77058 22.3417 5.58672 22.5788 5.47064L22.7361 5.40664L24.1041 4.93997L24.5708 3.57064C24.6607 3.3072 24.8308 3.07851 25.0573 2.91663C25.2837 2.75475 25.5551 2.6678 25.8335 2.66797Z" fill="#CC338B"/>
</svg>
