<svg width="32" height="32" viewBox="0 0 32 32" fill="none" xmlns="http://www.w3.org/2000/svg">
<path d="M15.9987 18.6654L13.332 15.9987L15.9987 13.332L18.6654 15.9987L15.9987 18.6654ZM13.1654 10.832L9.83203 7.4987L15.9987 1.33203L22.1654 7.4987L18.832 10.832L15.9987 7.9987L13.1654 10.832ZM7.4987 22.1654L1.33203 15.9987L7.4987 9.83203L10.832 13.1654L7.9987 15.9987L10.832 18.832L7.4987 22.1654ZM24.4987 22.1654L21.1654 18.832L23.9987 15.9987L21.1654 13.1654L24.4987 9.83203L30.6654 15.9987L24.4987 22.1654ZM15.9987 30.6654L9.83203 24.4987L13.1654 21.1654L15.9987 23.9987L18.832 21.1654L22.1654 24.4987L15.9987 30.6654Z" fill="#CC338B"/>
</svg>
